<?xml version="1.0" encoding="iso-8859-1"?>
<!-- Uploaded to: SVG Repo, www.svgrepo.com, Generator: SVG Repo Mixer Tools -->
<svg fill="#000000" height="800px" width="800px" version="1.1" id="Layer_1" xmlns="http://www.w3.org/2000/svg" xmlns:xlink="http://www.w3.org/1999/xlink" 
	 viewBox="0 0 512.004 512.004" xml:space="preserve">
<g>
	<g>
		<path d="M175.511,86.817c-16.468-21.965-25.538-50.013-25.538-78.981c0-4.329-3.508-7.836-7.836-7.836S134.3,3.508,134.3,7.836
			c0,32.336,10.182,63.724,28.671,88.382c1.54,2.053,3.894,3.136,6.276,3.136c1.635,0,3.286-0.51,4.694-1.567
			C177.404,95.192,178.106,90.279,175.511,86.817z"/>
	</g>
</g>
<g>
	<g>
		<path d="M417.268,317.906c-4.454-6.362-10.36-10.869-17.311-13.404c4.754-5.67,7.614-12.527,8.291-20.263
			c1.552-17.736-9.034-36.069-25.168-43.594c-7.039-3.283-14.405-4.236-21.695-2.952c1.282-7.288,0.33-14.656-2.952-21.695
			c-7.524-16.136-25.868-26.722-43.595-25.169c-7.736,0.676-14.593,3.537-20.263,8.29c-2.535-6.951-7.042-12.858-13.404-17.311
			c-5.149-3.606-11.121-5.933-17.333-6.992v-10.748c10.691-2.994,18.914-11.955,20.837-23.049
			c53.314-14.556,93.027-68.738,93.027-133.182c0-4.329-3.508-7.836-7.836-7.836s-7.836,3.508-7.836,7.836
			c0,56.239-33.6,103.638-79.023,117.348c-4.311-10.693-14.788-18.263-27.006-18.263c-12.231,0-22.717,7.587-27.02,18.297
			c-13.606-4.075-26.392-11.243-37.793-21.342c-3.241-2.87-8.192-2.569-11.062,0.671c-2.869,3.24-2.569,8.193,0.671,11.062
			c13.938,12.346,29.707,20.921,46.541,25.467c1.942,11.068,10.155,20.004,20.828,22.992v10.748
			c-6.212,1.061-12.184,3.386-17.333,6.992c-6.355,4.449-10.861,10.347-13.396,17.289c-8.038-6.642-16.806-8.11-21.624-8.363
			c-4.36-0.225-8.01,3.095-8.237,7.415c-0.228,4.323,3.093,8.01,7.414,8.237c10.544,0.554,18.322,8.088,21.948,21.216
			c-15.43,5.188-29.49,13.364-41.487,23.83c-6.668-6.8-10.011-14.046-9.658-20.984c0.326-6.399,3.693-12.519,9.481-17.235
			c3.355-2.733,3.859-7.669,1.125-11.025c-2.731-3.354-7.667-3.86-11.025-1.126c-9.269,7.552-14.68,17.705-15.234,28.589
			c-0.12,2.355-0.019,5.068,0.498,8.046c-7.293-1.284-14.67-0.335-21.714,2.949c-16.136,7.524-26.721,25.858-25.169,43.595
			c0.676,7.736,3.538,14.593,8.291,20.264c-6.951,2.534-12.858,7.041-17.311,13.403c-10.211,14.584-10.211,35.754,0,50.338
			c4.465,6.378,10.388,10.892,17.363,13.423c-5.402,6.425-8.386,14.342-8.488,23.215c-0.051,4.328,3.418,7.876,7.744,7.926
			c0.03,0.001,0.063,0.001,0.093,0.001c4.286,0,7.784-3.449,7.833-7.745c0.126-10.938,7.527-19.005,20.835-22.802
			c5.275,15.42,13.579,29.454,24.193,41.411c-6.526,6.39-13.219,9.638-19.906,9.638c-0.049,0-0.099,0-0.149,0
			c-5.87-0.043-11.685-2.723-16.373-7.548c-3.015-3.103-7.976-3.176-11.081-0.159c-3.104,3.015-3.175,7.977-0.159,11.081
			c7.636,7.858,17.401,12.225,27.5,12.298c1.924,0.017,4.106-0.131,6.48-0.545c-1.286,7.294-0.336,14.67,2.949,21.716
			c7.524,16.134,25.843,26.729,43.594,25.169c7.736-0.676,14.593-3.537,20.263-8.29c2.535,6.951,7.042,12.858,13.403,17.311
			c7.292,5.106,16.232,7.659,25.17,7.659c8.939,0,17.877-2.553,25.17-7.659c6.361-4.454,10.868-10.36,13.403-17.311
			c5.67,4.754,12.527,7.614,20.263,8.29c17.739,1.558,36.071-9.034,43.595-25.17c3.283-7.037,4.234-14.405,2.952-21.693
			c7.286,1.281,14.655,0.329,21.695-2.953c16.134-7.524,26.72-25.858,25.168-43.594c-0.676-7.736-3.537-14.594-8.291-20.265
			c6.951-2.534,12.858-7.041,17.311-13.403C427.48,353.659,427.48,332.49,417.268,317.906z M316.204,206.441
			c11.034-0.956,23.344,6.142,28.024,16.18c4.335,9.296,1.691,19.224-7.617,28.742c-12.193-10.672-26.285-18.731-41.531-23.816
			C298.654,214.641,305.947,207.339,316.204,206.441z M242.562,136.03c0-7.409,6.029-13.437,13.438-13.437
			c7.41,0,13.438,6.029,13.438,13.437c0,7.41-6.028,13.437-13.438,13.437C248.591,149.468,242.562,143.44,242.562,136.03z
			 M239.821,194.646c9.073-6.353,23.286-6.353,32.36,0c8.448,5.915,11.109,15.907,7.727,28.901
			c-7.781-1.522-15.778-2.313-23.906-2.313c-8.177,0-16.167,0.809-23.9,2.339C228.709,210.565,231.367,200.565,239.821,194.646z
			 M136.014,367.092c-12.774,3.2-22.599,0.509-28.443-7.837c-6.353-9.072-6.353-23.286,0-32.359
			c5.845-8.345,15.673-11.037,28.443-7.836c-1.566,7.767-2.393,15.796-2.393,24.015
			C133.622,351.295,134.448,359.323,136.014,367.092z M140.114,303.891c-12.68-3.61-19.857-10.858-20.746-21.018
			c-0.966-11.034,6.142-23.344,16.178-28.024c9.302-4.336,19.235-1.69,28.757,7.632C153.69,274.437,145.388,288.471,140.114,303.891
			z M195.799,479.708c-11.053,0.962-23.345-6.144-28.024-16.18c-4.346-9.318-1.68-19.268,7.679-28.804
			c11.996,10.464,26.054,18.639,41.484,23.827C213.368,471.49,206.069,478.809,195.799,479.708z M272.181,491.503
			c-9.073,6.354-23.286,6.354-32.36,0c-8.454-5.919-11.114-15.919-7.719-28.93c7.732,1.531,15.722,2.339,23.899,2.339
			c8.177,0,16.167-0.809,23.899-2.339C283.295,475.584,280.634,485.584,272.181,491.503z M256.001,449.241
			c-58.838,0-106.707-47.626-106.707-106.167c0-58.541,47.868-106.167,106.707-106.167c33.263,0.001,64.034,15.028,84.426,41.229
			c2.659,3.417,7.582,4.028,10.997,1.372c3.416-2.659,4.029-7.582,1.372-10.997c-1.626-2.089-3.314-4.109-5.052-6.073
			c9.507-9.284,19.424-11.919,28.711-7.589c10.038,4.68,17.145,16.99,16.179,28.023c-0.888,10.154-8.057,17.398-20.721,21.01
			c-1.512-4.42-3.282-8.77-5.318-13.038c-1.864-3.907-6.544-5.56-10.447-3.697c-3.906,1.864-5.561,6.542-3.697,10.447
			c6.806,14.258,10.256,29.56,10.256,45.478C362.708,401.615,314.84,449.241,256.001,449.241z M344.228,463.528
			c-4.681,10.038-16.998,17.143-28.024,16.18c-10.271-0.899-17.57-8.218-21.139-21.159c15.43-5.188,29.489-13.364,41.486-23.828
			C345.908,444.258,348.572,454.21,344.228,463.528z M376.455,431.3c-9.302,4.338-19.237,1.688-28.757-7.633
			c10.614-11.955,18.916-25.989,24.189-41.409c12.681,3.61,19.859,10.858,20.747,21.018C393.6,414.31,386.493,426.621,376.455,431.3
			z M404.43,359.254c-5.844,8.346-15.672,11.039-28.443,7.836c1.566-7.767,2.393-15.796,2.393-24.016
			c0-8.162-0.797-16.182-2.37-24.021c12.762-3.193,22.579-0.498,28.419,7.843C410.782,335.968,410.782,350.182,404.43,359.254z"/>
	</g>
</g>
<g>
	<g>
		<path d="M256.001,258.947c-46.586,0-84.487,37.74-84.487,84.128c0,46.388,37.901,84.128,84.487,84.128
			c46.586,0,84.487-37.739,84.487-84.128C340.488,296.687,302.588,258.947,256.001,258.947z M256.001,411.529
			c-37.945,0-68.815-30.709-68.815-68.455c0-37.746,30.87-68.455,68.815-68.455c37.945,0,68.815,30.709,68.815,68.455
			C324.816,380.82,293.946,411.529,256.001,411.529z"/>
	</g>
</g>
<g>
	<g>
		<path d="M306.531,335.238c-4.328,0-7.836,3.509-7.836,7.836c0,23.343-19.152,42.334-42.693,42.334
			c-4.329,0-7.836,3.509-7.836,7.836c0,4.329,3.508,7.836,7.836,7.836c32.183,0,58.366-26.021,58.366-58.007
			C314.367,338.747,310.86,335.238,306.531,335.238z"/>
	</g>
</g>
</svg>